<mxfile modified="2024-01-22T20:35:13.516Z" host="app.diagrams.net" agent="Mozilla/5.0 (Windows NT 10.0; Win64; x64) AppleWebKit/537.36 (KHTML, like Gecko) Chrome/120.0.0.0 Safari/537.36" etag="LYdFpgoQaz6_DuXCPNVq" version="22.1.21" type="device">
  <diagram id="Ht1M8jgEwFfnCIfOTk4-" name="Page-1">
    <mxGraphModel dx="1674" dy="1573" grid="1" gridSize="11" guides="1" tooltips="1" connect="1" arrows="1" fold="1" page="1" pageScale="1" pageWidth="1169" pageHeight="827" background="none" math="0" shadow="0">
      <root>
        <mxCell id="0" />
        <mxCell id="1" parent="0" />
        <mxCell id="Dejl1EHgX0Egc-d-bemE-26" value="`" style="rounded=1;whiteSpace=wrap;html=1;fillColor=#dae8fc;strokeColor=#6c8ebf;" vertex="1" parent="1">
          <mxGeometry x="330" y="-99" width="737" height="627" as="geometry" />
        </mxCell>
        <mxCell id="fdkoNqw9oe1VA67Y62dj-11" value="`" style="rounded=1;whiteSpace=wrap;html=1;fillColor=#dae8ad;strokeColor=#6c8ebf;" parent="1" vertex="1">
          <mxGeometry x="341" y="-88" width="605" height="581.75" as="geometry" />
        </mxCell>
        <mxCell id="SB_mpgMmpFjguFMvalku-5" value="" style="outlineConnect=0;dashed=0;verticalLabelPosition=bottom;verticalAlign=top;align=center;html=1;shape=mxgraph.aws3.android;fillColor=#8CC64F;gradientColor=none;" parent="1" vertex="1">
          <mxGeometry x="418" y="350.25" width="73.5" height="84" as="geometry" />
        </mxCell>
        <mxCell id="SB_mpgMmpFjguFMvalku-6" value="Node/Express API&lt;br&gt;(backend)" style="rounded=1;whiteSpace=wrap;html=1;" parent="1" vertex="1">
          <mxGeometry x="407.75" y="434.25" width="120" height="37.5" as="geometry" />
        </mxCell>
        <mxCell id="VnQoZkpu8_wD3-fmnFL3-3" value="" style="sketch=0;aspect=fixed;pointerEvents=1;shadow=0;dashed=0;html=1;strokeColor=none;labelPosition=center;verticalLabelPosition=bottom;verticalAlign=top;align=center;fillColor=#00188D;shape=mxgraph.azure.user;fontSize=9;" parent="1" vertex="1">
          <mxGeometry x="36.5" y="99" width="47" height="50" as="geometry" />
        </mxCell>
        <mxCell id="VnQoZkpu8_wD3-fmnFL3-4" value="External Users&lt;br&gt;Business BceId" style="rounded=1;whiteSpace=wrap;html=1;fontSize=9;" parent="1" vertex="1">
          <mxGeometry y="158" width="120" height="28.5" as="geometry" />
        </mxCell>
        <mxCell id="fdkoNqw9oe1VA67Y62dj-2" value="" style="verticalLabelPosition=bottom;html=1;verticalAlign=top;align=center;strokeColor=none;fillColor=#00BEF2;shape=mxgraph.azure.computer;pointerEvents=1;" parent="1" vertex="1">
          <mxGeometry x="140.37" y="66.75" width="103.25" height="89.5" as="geometry" />
        </mxCell>
        <mxCell id="fdkoNqw9oe1VA67Y62dj-3" value="User Broswer/Device with frontend Vue.js Code served by Caddy webserver over HTTPS" style="rounded=1;whiteSpace=wrap;html=1;" parent="1" vertex="1">
          <mxGeometry x="132" y="165" width="120" height="88" as="geometry" />
        </mxCell>
        <mxCell id="fdkoNqw9oe1VA67Y62dj-7" value="" style="sketch=0;aspect=fixed;html=1;points=[];align=center;image;fontSize=12;image=img/lib/mscae/OpenShift.svg;" parent="1" vertex="1">
          <mxGeometry x="960.1600000000001" y="-94.75" width="50" height="46" as="geometry" />
        </mxCell>
        <mxCell id="fdkoNqw9oe1VA67Y62dj-10" value="&lt;font style=&quot;font-size: 11px;&quot;&gt;OpenShift Platform&lt;/font&gt;" style="rounded=1;whiteSpace=wrap;html=1;" parent="1" vertex="1">
          <mxGeometry x="953.1600000000001" y="-33" width="95" height="33" as="geometry" />
        </mxCell>
        <mxCell id="jMKWt5ZAdhQBftQGj2K4-3" value="Caddy Web Server containing frontend" style="rounded=1;whiteSpace=wrap;html=1;" parent="1" vertex="1">
          <mxGeometry x="395.5" y="30.25" width="121" height="35.75" as="geometry" />
        </mxCell>
        <mxCell id="Sa8QTSbO3vtyegJ3GiD7-3" value="" style="image;sketch=0;aspect=fixed;html=1;points=[];align=center;fontSize=12;image=img/lib/mscae/Azure_Database_for_PostgreSQL_servers.svg;" parent="1" vertex="1">
          <mxGeometry x="787.5" y="33" width="91.96" height="121" as="geometry" />
        </mxCell>
        <mxCell id="Sa8QTSbO3vtyegJ3GiD7-6" value="Crunchy HA Postgres DB On OpenShift" style="rounded=1;whiteSpace=wrap;html=1;" parent="1" vertex="1">
          <mxGeometry x="711.25" y="33" width="54" height="110" as="geometry" />
        </mxCell>
        <mxCell id="Sa8QTSbO3vtyegJ3GiD7-7" value="" style="shape=image;verticalLabelPosition=bottom;labelBackgroundColor=default;verticalAlign=top;aspect=fixed;imageAspect=0;image=data:image/png,iVBORw0KGgoAAAANSUhEUgAAAT4AAACfCAMAAABX0UX9AAAA8FBMVEX///9BuIM1SV4AAAABAQEwtHvO693w8PDIzdEhOlL19fXW1tZOTk5AQEBBu4Qqs3k0QFvPz880RV00QlxCvoWUlJS3t7deXl7k5OSsrKyamprBwcGMjIzn5+djY2OkpKTs9/IkJCQXFxeHh4d6enpPvItsbGy7u7tycnJCqn9wx56949FHR0c2NjZVVVXIyMiK0K7b8OZDtIM9UGRBe3FewZRDo36r3MU9bWtBkHfI6NggICAxMTGd17sSEhLL4tktW2AAKUapr7clR1cIrm9QYHGFj5pfbXw9gnE8WWZAl3l9iJNfbHydpK0lPVU9ZmnKny6dAAAKrUlEQVR4nO2dfWPaNhDGQ01Kw1tKWogNCZDAEpoS6Np1Lw3L1u6lL9u67/9thi0bS9Zzxjaygex+fyXYsrnLSbrnJDsHBwzDMAzDMAzDMAzDMAzDMAzDMAzDMAzDMAzDMAxTJO8eI355gqCvAk//BV762+JsK4Cb40PA8a9HOu9r1EU+vAen/wav/PvDct/wsIR48fSRzh/ENapH4OSn3zfBdQ9fFWpd/vwA/ff8u2e6R46u8SX+/Kqfe/Ljc3Tdw2KNKwAYfaXSCYior/AC9ntw6rPX0Hs/FGxc/rw7RoY2fwLd9+uf6AIfgaeffYLB903RxhXADYy+5mcQU0fnevMnaOR7A695/Lh463JniMPvexB+Jx/15m+A955+QfNG6aZ44wrgZzx7/Ag65ZGW/H1A88avsOseD7dgXAHAnlZ6jZKXN5GmOGl5AZOWn7diXP68xN33E0pePqhN/0LB9x0MvtJ2jCuAt9DcJgisR1+rckMbBd8JTlpebsu63PkWh9+XtcnL36jr/gTnjbfbMq4AXkGLn38Gs8d7O2zWQ8H3GV7r+GGJXRUsfXHy8nfYDPXu/4nYVSGkb3zy8k8KsTvconEF8A0yuvQaSd8geanApOX/InZVHhPJC5o9/hFNUNJCiF06aem1uxX6W9XaXbLKuFsQ0hdpsiPP4BoUu3DeOHxH3NQuW0vI72S7R/t5WGscQvrC5OUvt8EfqOumFLu3VrlctlrU4bPlYcvqmja1Zq8/JzWE9P0XzR41nLSc/IvFLpm0zDz3jajDC+/wmVk7B8uIvshhSICBQ9btwaeU2KWTFsfzzyVx9NzyDps11VledOnAmAE3I1j64rr9E5i0pBa7FcvrnkRnEs69N2vlhXvRsvkRgZK+JRRnaEZ5dAKbx4rdhuehAT4ouvbYrJFl4b622au6ENIX1e1h18ViN7ZC3/U81MAHRd+dmzVyJAI+j3zoFZ49UN0e8BnPG7EVelsYU0XHep736LQmI3U3G8qh7x4cVJNLXxB8UOyuq9B7Q5HVQYfG3iHzaV/vrJ1TLp5C+kbJKHbPPB9doUP3tGd3FUL6Jgg/YmV3XYW+RvZQ/wjs17sKlr7PUd0+4r1POG1ce0eLEh5iVpnmYGSOYOlbgomKDCF211fox5TwiM1pdpUU0leGELsJKvRzz0sX2ufxGfXOQkhfVLcPSS12JQg3OYRbdx3YeZtQ+obB9wJ23UQV+j7upKd5lAsKgJC+ccnLMyx2DxPNmh08ReQnDnIGS9/XMZMvIXaTVeirUHiIIbGc/tvbPcdx5mAvUwyVVsdxOj3bSJJESF9Ut/e7bgaxK1H3PBXZezmSywVLndrQ55DzmWXN1MJTa2L53J9RHqzdWtap1KzSvQgaWbdtA1MVlr5wy5oHsbKbdDuag4RHWSoXjD3TtNAQBksf1BruJ2WvorJkjIPJaxYWKQarNl4ja5YucAHEqi+VvGQTuyHnovcqn9nyZ1NYNa1G9Up75YfAGWgVoKLe7Upp47XaOAAJ6Yvq9qTYTbEd7dYzSLG1K5cL6onc1xf6xUe4Aghm1X0jqyw1MlVJxdIXJy/Eym6K7WhdXXhM5XJBIvf1fefNBr155+zO92VPu5nivpZ/2qzrdJxRQ/iQXLlKDCF9Ud0+s9gNsbUMWZ2Nk7ivLVqsRq6O7xhtJFPcJ1b66sFEUuleLqeVFN+cgpC+oPfibczptqPdeVZIlqq5YAL3+WOlVIL315nq0XvJ7hOtlFPmRgpkhPTV6/bZxa7EKCo8rpQPErivrvd/f0aKdkXZfQMLBqgBKOkbnTc2ELshrWigWIpd692nd/8DIiFS3DfRgs8YsE9qdXssdptpt6NFhEdL9cZ6953BwvS9nhCp7nOnm5w2gSSSvpTYHaa82UQVHqIzrway9e5reC6JLn2PUS1Hdp87RiiJt0EI6auEHyF2U++hF4tqk+DXC7VcsN59IPE+CHpvZKFTdl/b+9HwSqgPlr5K3Z4Quxn20Cv22xFvrHVfFbvvGolp2X0t8bOT/vsmgJC+UvBhsUtuR4vhVF7xGER2F2R1X3ud+/xlUmuRy3LeOumLxW4zy7NXHbk4Wo90uqTus2syrQFchYKqY5ksO8aXBQjpG9TtKbGbZQ+9MErMtVosJXNfqFxlCatValTN25EqNHcjw8VZKH1XdXtiZTfbHvppmOn15HKBS0L3QTQNFqm41JQa173RYZCSvicxYjfjA+ODUGdMoklc5uhz64HRol8lGtvOQq74LUxu/MPSV+y3J1Z2M+6hPw/lp1a8Tzr2TRsR6mM9KdHct7z3YCrFoEENRxROXelLiN3MD4wvAqtqmtTPOvNCgPvcK1xfBeW+u6wWALD0bb4hxW7mB8ZFltELBJi8cFmA+9yLdH3/mdw5CXvvUvpisbvBA+O1QHgsotUrf5dp1H0V71Nv664R9y0vM1VKiCZ4SdTtDYldCd8sMQgu5CN9WBAQ/r6V2iZaZ4xxX1A+NZm/YOn7YuMKvYbYK1RzLK0DtWHlSV4OWaAEGRPrPlHqMZm9YOlLsMmN5p5d3b5aLhBHyqCgcimNkWO15BBHrPtEGBvduYulLwy+zR4YF8LjElhnRRPpgyD4fJ/6Dk6iu4p2H5a+iA0fGBcV+ki5wEP0XsWsuepSsZH3Uhv99OFQdl/FiUS0mIPMVmCw9NXZ9IHx65Xy0kpwvqoIR8ToQprj52xq/HVXTc4urVNxruw+K7oSfGZ86jigVn21rrvpA+Mr5ap3rZ7vramYHexgSTyMx6nwnzUK42lwv1q1nXkCzvOf5L6B+3hWXZpwBikSoORg6au5b7jpfWaB+/Tlh1Egqe5PJ/2LQCBI5YDqve8/q97uzFu9Qd+vuLirb3NxzJu7JfeJYrO1aLfsSvW8NmiIFsaf+SBWfVXvbf7AuBO4D1Qvx1JdJPhxJp9QuZNPCPdpuPsM2pIck9xnB+coLcxvaCVekqhg4O1olcAclP+2tb080TzlVC9b+WNfV1x3sbqJ30GvrWiTZXibf9aSkL4yRt6O1hBm4pXX1l1orKUN+i7Xl4o7lr9c+GOltAdBSVzsuiU3cbfI5PIcydrgM/J2tJroQ1T65oT7GMt4gLqeybW+6WqZw3F/FX+VaLl0Ireo57PqRrwkUQq+oZHbVAajUVzWZTuj/ml/PIhJLVqDcf90eU63J8eR3R75vtTT5pozulq2mKgtzPIWL0n67NHb0eJVR17gPUMrCv42G7Ad98VK3316O5ooE2bYsr8hMe7bp7ejnQt1XPh9aem7V29HE1VW4vH/PKGkb+rtaFulB2uvBUBJ3/16petAr2YXBJa+e5S0uJwGK3qFQyQvW/gm2cFP0BUDkr5ZtqNtEbFmbOLhgwyAeWOPkpalOPPLrJs/+ZKJd1r47VHScrUq6c3Wn5wPUem7R690rYRrATmU9JIRXfXdo/9fYq+q0Vt8vYQqfffqla4LUdO72uqLdRT37df/L+lOJqPO1jquQJa+D/L/l+SMJH0f5v8vyZdw9njorwLPhxs/edkzsbsrrFZ9t/1F9hQhfY/3qEK/W3ixt0did8dwV333SOzuHDfNPRK7u8fwmJOWTXjFScsmDLf9BRiGYRiGYRiGYRiGYRiGYRiGYRiGYRiGYRiGYUzxH0ou0dmklC76AAAAAElFTkSuQmCC;" parent="1" vertex="1">
          <mxGeometry x="151.75" y="83" width="80.5" height="40.25" as="geometry" />
        </mxCell>
        <mxCell id="Sa8QTSbO3vtyegJ3GiD7-10" value="" style="shape=image;verticalLabelPosition=bottom;labelBackgroundColor=default;verticalAlign=top;aspect=fixed;imageAspect=0;image=https://www.marcus-povey.co.uk/wp-content/avatar.png;" parent="1" vertex="1">
          <mxGeometry x="960.1600000000001" y="77" width="88" height="88" as="geometry" />
        </mxCell>
        <mxCell id="Sa8QTSbO3vtyegJ3GiD7-15" value="" style="shape=image;verticalLabelPosition=bottom;labelBackgroundColor=default;verticalAlign=top;aspect=fixed;imageAspect=0;image=data:image/jpeg,/9j/4AAQSkZJRgABAQAAAQABAAD/2wCEAAoHCBQREhcSEhISGBcZEhUYGRgXExcXGBkZFxgZGBoUGBcaICwwGh0pIhgXJDYkKTovMzMzGSI4PjgzPSwyMy8BCwsLDg4PHRISGTYjIyk0NS8yNDQzMy83Mi86Mi89NTUyMjU6MjMvMj01Mi8yMjI0NDIvMjIvMjoyMjovMjIyM//AABEIAK0BIwMBIgACEQEDEQH/xAAcAAEAAgMBAQEAAAAAAAAAAAAAAQYEBQcDAgj/xABJEAACAgECAwUDBQwIBQUBAAABAgADEQQhBRIxBgcTQVEiYXEUMoGRoRUjQlJTYnJzsbLB0TNjk6KzwtLwFzRDgpIlNURU4Qj/xAAaAQEAAgMBAAAAAAAAAAAAAAAAAgUBAwQG/8QAMBEAAgICAAQEAwcFAAAAAAAAAAECAwQREiExUQVBYXETFIEVMjORobHxIzRSYvD/2gAMAwEAAhEDEQA/AOuxIiTNZMSIgExIiATEiIBMSIgExIiATEiIBMSIgExIiATEiIBMSIgExIiATEiIBMSIgExIiATEiIBMSIgExIiAIiIBESImQTEiIBMSIgExIiATEiIBMSIgExInndatalmIAHnCW+SMNpLbPWYWq4nXXsWy34q7n6fIfTNJr+LvZlVyqf3j8T5fATTX6pU2O59B/H0nXDGSXFY9FXZ4hKcuCmO33N/dx9z81VH6RLH7MTFbi9x/6mPgq/ymmp+UXb00sR6hfZ/8zgQ/B9e3Q1r7jYh/cBkvjY0OSjv/AL1I/K51nOU9fXX7G4HFbvyh/wDFf5T3r45aPncrfEYP2Sp3cD4qN0dD8LF/zLNfbfxbSjmv0rOo6kVh9vUtSSF+Jj5jHlycdfQx8nmw5xs39Tpmn46jbOCh9fnL9Y/lNolgYZUgg9CDkTlPCu1NNxCv96Y9OYgoT6B/54lk0uqeo5Rseo8j8RDx65rdbMRz7qZcN0fqXSJgcP4ktwx0cDdf4j1Ezpxyi4vTRbV2xsjxRe0TEiJgmTEiIBMSIgExIiATEiIBMSIgExIiAfMZkRAJzGZEQCcxmREAmJEQCcxIiATmMyIgEW2hFLMcADJMqvENc1zZ6KPmr6e8++ZnHdXzN4anYbt7z5D6P99JpzLHFpSXG+pQeIZbnL4cei6+rMfU3EEVoCXYgADc7nAx7zLBw/gFdCh7gtlp35TuifR+Efefox1mB2KoF176gjZBhf0nzv8AQox/3TdcY4hXpqrNTcTyrvgdSTsqL7zsJw32uyfp5Fxh40aK138/c92LPux2H0AfR5TW3doNFWeV9XpwR1AsViPiFzic8vv1nF2LO/hUcxAUZ5Nj0C7eIR5s3nnGOky6OyOnUe0bHPvfl+oKBMV4tk1tLl6kbs+iqXDJ7foXmrtToD/8yj6X5R9bYm2p1SOoet0ZT0ZGDA/Aic0fsnpSNlsX3ixv82ZrbuBajRE36K58jcqNnIHqBtaPzSPhmSniWwW9b9iNXiOPY9b17l47TdldPrQW5RXbg4tRcZP9Yo+ePjv6GUzgmut0tx0Or2IPKjE5/RUN+Ejfgny6e4Wrsv2lGtqJYBbUwHUdDnpYv5pwdvIjHoTqO8PQh6V1K7PUwBI68jHH2MVI9MtNVVkq5bR0ZFELoOL/AIZuFYqQykgg5BHlLRwvXi5d9nHUev5w90pXCdX49Fdnmye1+kPZb7QZsNLeanDr5eXqPMS3trjbDa6+R5zGvnjWtPpvTRc4nxVYHUMvQgET6lVrR6RPa2iYzIiYJE5jMiIBOYzIiATmMyIgExmREAmJEQCIiIMCIiAIiIAiIgCIiSAnnqbeRGc+QJ//ACek1fHbMV8vqwH1b/wElCPFNI03z4K5S7Ir7MWJJ6kkn4mY2vflqsb0rb9kyJgccONLcf6p/wBkt58oP2PL1c7Vvuv3LH3dKPkLP+PbYfqCp/llX70NUbbtNo1OATztj1sbwkb6ALPrlk7tW/8ASVP59/8AiNKf2sbPGaM/kq/37ZRQW5JHrrG4wk15Js3tNSoqogwqqAB6AbCfcRPQLkeNb29sSZETJgqdI+ScWUJslo3HutyMf2igy2cbr59LcvrTZj4hSR9oEqnaQY12kP59X2Wr/OXbi1fLXYP6qz91pQZEVGxpdz12HNzoi32Kn2Js5tKR+La4+sK3+Yywys9hP+Xs/XH/AA0lmlxjPdSPOZq1kS9zfdn9RlWrPkcj4HqPr/bNvKvwizltX3gj7M/wEtAM4MmHDP35lz4da50pPy5CIiaDvEREAREQBERIgREQBERJAjMZkRBEnMZkhGPkZ9Chvd9cxtEtM+MxPUac+ok/Jz6iY4kOFnjmJ6nTn1E+TQ3u+uNoaZ8ZjMFGHkZEkYJzNJx9vmj3n+E3U0fHB80+8/7+ybsf8RHJnf28jUTA47/yt36mz90zK1F61qXc4UDc/wAPjKvrOMW6lXREARgVOdyQdjk9Bt5CdWXlV0x4ZPm1yS6nnqVqSl5Jou/dwccI/wC+/wDfMqHads8W05/q6v8AEtmJoOK6zS0/J6beSvLHl5a2+ccn2mUn7Zham62y1bncGxAArYAwFJI2Awd2P1zz6za4STafIvp59M4OK3zTRfYlL+6mq/Kj/wAU/wBMfdPU/lvsX/TLP7cx+z/QofheqLpEpf3R1X5b7B/pj5dqvy/7P5TH25R/i/0MfC/2RmdpP+c0X62v/Frl+7RV8quPWl/2NOXX+LY6OzhmQgoT1Ugggjb1A+qZt/EdZb8/Uu22Nz5Hy6Suu8QrnNySfMucbOqpqUJdUe3YT+gs/Xf5ElnlK0Zv0qk1lSmeZlAyOmMkdfIdJZuE8TXUpkDDD5y+nvHqJb4GbVZFQXJ+vmVmW/iTdi6M2ukOLEP54/bLcp2lS0g++L+kPs3lqr6TZmfeXsWXhX4b9z0iRE4y0JjMiIBOYkRAJzGZEQCcyRCVlvh6zKSsL/ORckiSi2ePgH1ETJiR4mT4UeK6cDrkz1CgdAJMTG2ZSSEREwZEREAREQBIKg9QJMoPajvT0ehZqa1bUWqSGCEKisPwWsOd/wBENjBBwRiAXlqAfd8JpOO6X2CQem85zX33tn2uHjHu1Jz9te8u/Z7tfpOLoyUOy2hctVYAr46cwwSGX3g7ZGQMibK5uElLsarq1ODj3Wij9rbSTVWOhyx95+aP4/XNpwDgy2nDZFdYGcbFifLP1kn+c1fbKkpqEVtiNv70tfZqzFT/AKw/urNVzU75y69Py0eahV/UjGS6b2vVE67U6LTnw2rqyB0FYYj4nHX4zXPxrReVa/2I/lK7xNibbCfOx/3jMDMqLr5KWkkTeS9tKKSLZ919MxAWvJJwAKhkk9ABPu6zAJOluAAySdOwAHqTiYvYJQdcmwOEcj3HGMj6zI7J9tdbqeNPorbENK2alQorQHFfPy+0BnyE3UVO2HE3r6HfjUu6vib1z7Hg/Eqz0X+6JjPrVPQfYJ48VULqLlAAAvsAA6ABzgCY2Zwyb3oqpylxNGeNLc4DJRaVPQityD8CBvMZkZW5WUqQdwQQR8Qek2/eh2z1fDdXXRpXRUOkR8GpGwxe1diRsMIu3umf2/A+VV9N6FPx9pt513Yvw4cW9nbleHqqvj3s1GmmFw0eFruRdlbIx7mTnA+g4+qZmlmGhxxFf0l/cksVtWwa7o4YfdfsXjhyZsB9P9/zlmXpNNwagk/EzE7V9u9Hws+E/NbfgE1Jj2cjI52OyZGNtzuDjBl9k2KU3+Re4FLhSk/PmWaJyb/jac/+3Jy+nyjf6/D/AIS99ke12l4sjeBzJaigvU+OYA7c6kbMudsjpkZAyM6FJHa4M30REkQET0Whj7vjPZaAOu/+/SRckiSi2Y6IW6CZFdAHXf8AZPaJFybJqKQiIkSQiIgCIiAIiIAiIgCIiAUDvf7RtodEK6XK26hmQMDhlrUA2Mp8juq+7nJG4ErPdV3e020Lr9ags5yTVU3zAgOPEdfwiSDgHbG++Rjz/wD6AU+Joz5FbwPiDXn9qzpvYmxW4ZoypyPkdA29VrVWH1gwDJt4Bo3Tw30mmKYxy+DXyj4DG30Sv9nu7vR6DVtq6g5P/TRiWWnIIYqTuxOcAncAnr1lziAcf493rFdQ9Oi0Aa1XZOa5SXLISCPDTfAIP4WfcJg0d7uqqfk1+gq5TjKqtlLgH8ICwtzefp06y4cW7fcK4bfaqqWuaz798nqUkuNjzuxUMRjBAJwc+eZTe3feJw/ieifTrp9SLMq1bvXVhGDDJyHJAK8w29YMaRZ7eA18QFOr0LfebyS2etZ3LHHrkMOX8bG+DtpeM9u9Hwpzp9BpkutTK2XuducbEAgZffOccoGNszx7vOJPp+z/ABB1Yhq7LeQ+as9VYBHpgnPxnn3G8Bqta7WWKrNUyJVkZ5WILM+D545QD5bzXGqCk5JczRDGqhJyUebPTh3e9qKrF+X6FAjHZq0etwvmyixm5+vTI69ZqO7e9be0LWIco76t1OCMqwcg4PTYidz4twyrV0tp9RWHrYYII6ejKfwWHUEbicH7rNKaOPCknJr+U1k4xnkV1zj6JsOgvHafiOh4KzWXVjUaq17LEq2wqs5IZs5Cjy5sEkg42zitJ3u645sOg05oBwQEt2H4pt5iuf8Atmqr044r2kevUnKHV3AjOM16cOVT4FawDj1J2n6CqoRECIiqoXlCqoCgDblAGwHukIwjFaSIRrhFaS0fmvvG7TV8U1FOoqVlxpFR1bco4stJXm/CGGUg+/yOQOldqe8G7hvEV0t+noNB8Jhbhy/gvszAZOSpFgx58vvnPe9rglWi4iVoUKltKXcgGFQszowUeQyhOPLmwNp0Tvr4F4+hr1aDLadhzepqswp+OG5D7gWMmTPTtDw4Uak8ijksAdAo232Krj377eTCeXa7tX9xPk+n09FNl1iGyzmBz5Kp9ndskOB6BQJse7Pidev4dU1wRrdKfCLMBleQAo4J6ewFyfMqZRuzCHjfaB9WwJpqfxRnOOSohaF9xJCsR54f3zTCpRk2clOJGuyUu/T0OwaDSWk133OFsNKh6kB8NXK+0FJOcA5+rM0/Ee73QanWDW2VZbcvWDiux9sO6+Z65A2bzzvm3RNx1mrv7P6R6/BbS6YpjHJ4KBQPcAPZx5EdJwzu+rFPaJaqGJrW/VVg5zzVqluOY+eyg/ECXfvQ7whpg2h0bZvYFbLFP9EDsVUj/qH+78ent3T9h20CHV6pcX2LypWetVZwTzDydsDI8gMdSRAOi+AM5Oes9AoHQCTEztmNIRETBkREQBERAEREAREQBERAEREAREQCpd4/Zf7p6I1pjxa256skAFgCChJ6BgcfHlnLewfb9+Ec2i1tVhqV22xiylifaXkbGVJ3xsQSTvnE7/NFx/snouIb6rTq7AYDjKuAOg51IJG52ORANFd3r8KVCwusY4zyLRYGPuBYBc/TNT2U7xdRxPVX6evTFUNTml03NRVDg3MdsMcYxjBwN+o2NfdFwtW5il7D8Vrjj+6Aftlw4VwjT6OvwtNSla9SEXBJxjLN1Y+85MA4J3WavRabWv8AdFVVuXlra5MojhvaDcw9h/Rj0wRkZ3uPeb2t4cdE+m0rU222BQDUoZUUMGZy4GM4UjAOd99pb+Pd3/D9dYbrqCLG+c6OyFvewGxPvxmfOg7u+HaeuytNOfvlZrdmd2fkPUKxPsZ8+XGYBSu6Tho1fB9dpiQPFssQMRkKWqQK2PPBwfolZ7Adp24Hq7tNra7FR2VbFAy1diE8tgXOGXDHOOo5SM4APb+zvZzTcOravSoyKz87Auz+1gLnLH0Anl2g7JaLiGDqdOrMBgWKSjgb4HOpBI3OxyN4BWON97PD6qWOmsa+3BCIKrEUNjZnZ1X2R7sn9s5z3R2s/Gkawkuy6gsT1LFGJJ9+czrHC+7ThmmcWLpy7Kcr4ljOoPrydD9IMz9B2L0Wn1ba6utxcz2MWNjkE2Z5/ZJxvzGAcg7YU28D458tRMo9r3152DizItqzjYjnYeeAynznSKe9fhTVh2usRuXPhmmwuD+LlVK5+nEtnE+FU6us1amlLEP4LjOD+Mp6qdzuMGVId0/Cubm8Gwj8Tx7OX4Zzn7YBxXtz2jbiesbUlSqcorrXzCLnGT6ksSfTmxP05qtKl9L02DKWVsjj1V15SPqMrvE+77h2p5A+nwK6/DRUdkVV5mc+ypGSWZiT1OZ76jtrw+nUWaW3VLXZUBzc4IXdQ2A+MEgEZHX6jAOCLxDUcGfX6EdbENDHp0ba0D31s4H6zPlOwdznAvkvDhc64s1LeIdt/DGRUPhjLj9ZOc8dFfH+OqmlU+G3Ij2AEFkrH3y8gjb2fZXPXlTzOJ+gqqlRQigBVUKoHQADAA+iAfc5j3o94J0XNotISNQVHiWfklYZAX1cgg58gfXp06VXjXd/w/W3vqNRU7WPy8xFrqPZUIMKDgbKIByLu61vC9I/yzX3O+oDEonhO61nP9KWx7TnqPTr1+b1PTd5/DLXStL7CzuqqPBsGWYgAZI23M8/+FHCv/r2f29v+qemm7sOGVOliUWBkdWU+NYcMpBBwTvuIBdIiIAiIgCIiAIiIAiIgCIiAIiIAiIgCIiAImsfj2kUlW1elVlJVgb6wVIOCpBOxBBGJl0ayu0kV2o5ARiEdWIWwcyMcHYMNwfMdIBkRMK3imnRfEfUUKnOa+ZrUC865zXzE45hg7ddjPrRcRpvz4N1VnLjm8OxH5c5xnlJxnB+owDLieVV6OWVHVijcrhWBKtgHlYD5pwQcH1nlVxCl+TkuqbxObw+WxTz8mebkwfaxg5x0xAMqJhavi2npYJdqKK2K8wV7URiMkcwDEbZB39xkafiuntx4eoofmZlXktRuZlXnZVwd2CkEgdAcwDOieVF6WDmR1YZZcqwYZUlWXI8wQQR5ERTej83I6tysVblYNysOqNjowyNjvvAPWJijiNPh+N41XhflPETw9jy/Pzjrt8Zj1cc0jsFTV6ZmOcKt9ZJwCxIAbyAJ+AMA2UpHHu7Dh+sta9hdXY7F3NVgAdm3LFXVgCTvtjeWajjelsYV16rTO7HCqt1bMds4ChsnYGZGu11WnTxL7a61yBzWOqLk9BzMQMwDU9mOyWk4YCNNWeZgA1jtzOwHkT5D3AATfzCs4rp0RbG1FC1v8xzagRv0WJwfonwvGdKazYNVpzWrBWcXIUDHopbOAfdANhEwk4rpzW1o1FBrXHM4tQouTgBnzgbnE99TqUrUvY6qoIBZmCqCSABk+pIH0wD2iayzj2kRiravSqwYqytfWGBBwVIJ2IO2J6W8Y0yWGt9Tp1sBAKNaiuCQCAVJzuCD9MAz4iIAiIgCIiAIiIAiIgCIiAIiIAiIgCIiAUjtBw6j7r8NBppxYOIFx4a+2RVWQW29o5JOT6mY2jq1Q4txBdE2kQLXoAwuqsYYFThAgrdeUDfrnyxiXxqlJDFVLLnlJAyM7HB8swtSglgqhmxkgDJx0yfPEA5BrWZdBQbX0wcdpLed7Afk4bm1HMzKWB8POdiennL/wBkb0dbAt3DLHDLzfIVCqFIPL4gDsc558H4++b1tHWw5TXWV5i2CgI5j1bGOu5398mjS1158OtEzjPKqrnHTOBv1MAp3DOM6fRa3iKaq+ulm1FdyCxwniVtQi81fN8/dGGFycjErvBHXR1cCbUstSg61maxgiqLarGQlmwBnnX6xOp36Wuwg2Vo5U5Usqtj3jI2k36auzHOiNjpzKGxn0z0gFG7x7tLquEarUUtpriorQWo1dhU+LWeUOucHD5xn8L3zYcb0tdXEeFrXWiA36skKiqCfkrjOAOuw390s66OsIUFdYQnJUIvKTtuVxg9B9Qno1SkhioJXPKSASMjBwfKAct4Bbq9IljaWtrRrNVq60BGU0+pW+xFtf0qKDLdd6vzp8cMufRcP1uk07W2X2cW1GlqOQ1rMUr57Tkj2ggd8kgZxuMzqtVaoMKoUZJwAAMncnAnwumrB5giBuZmzyjOWGGbOOpHU+cAovZPk0+ps4c+ltp091a26erULWcvUqJegCu4bOK7Mepcz67OaCoJxVhVUGTXatUYIoKDwK/ZU49kbnYepl6epSQxVSVzykgEjOxwfKFpUcwCqOYkthR7ROxJ9T8YBzju91NfJpFbUcFJ8BAErRRrA3h7KWNhy4/C9n16TcdtKKvlGnuOq0Nd1ddvh161QarFcoGYEsCrjlA5hk4J2lqTQVKQy01AjoRWoI+BA2npqNMlg5XRGGc4dQw+ODAOV8Q4ol9Ghda9Bp1TiOqTNgDaJildoa5SOTmrZicHb2j5zP41cj8OXkbh17DiWkyuiCrW33xOWtwXYBjuMk4wROiWaWt1CtWjKOgKKQPgCNp8po61GFrrAyDgIoGR0bGOo9YBQdBw5NXxDU1W6SvRj5AarKVZee5bmHLqPvYClV5SoYEkMcHG0+eCX2663TcPv5idA7PqyQwFj0k16Xc/OD/0p6g8k6IalLByq8wBAbA5gD1APpC1KCWCqC2OYgAE42GT54gHKeCalE1GrFuo4Ki/dXVFk1aL45XxdyrGwYBGcZB3z1mVr7imu4s/3MTWqvyZm5mq9kDSoccrgkg7n2Qek6M3DqWJLU1EkkkmtSST1JON57LUoJYKoLY5iAATgYGT54EA0vYnSGnh2mrNot5aEw6klWB9oBScZUAhRnGyjYTfT4qqVFCoqqo6BQAB57AT7gCIiAIiIAiIgCIiAIiIAiIgCIiAIiIAiIgCIiAIiIAiIgCIiAIiIAiIgCIiAIiIAiIgCIiAIiIAiIgCIiAIiIB//9k=;" parent="1" vertex="1">
          <mxGeometry x="383.25" y="66.75" width="145.5" height="86.5" as="geometry" />
        </mxCell>
        <mxCell id="Sa8QTSbO3vtyegJ3GiD7-23" value="BC DevXchange Keycloak / SSO&lt;br&gt;on&amp;nbsp;&lt;br&gt;Gold Cluster" style="rounded=1;whiteSpace=wrap;html=1;" parent="1" vertex="1">
          <mxGeometry x="951.8800000000001" y="169.88" width="104.56" height="66" as="geometry" />
        </mxCell>
        <mxCell id="Dejl1EHgX0Egc-d-bemE-4" value="" style="outlineConnect=0;dashed=0;verticalLabelPosition=bottom;verticalAlign=top;align=center;html=1;shape=mxgraph.aws3.android;fillColor=#8CC64F;gradientColor=none;" vertex="1" parent="1">
          <mxGeometry x="796.73" y="352" width="73.5" height="84" as="geometry" />
        </mxCell>
        <mxCell id="Dejl1EHgX0Egc-d-bemE-5" value="doc-gen API" style="rounded=1;whiteSpace=wrap;html=1;" vertex="1" parent="1">
          <mxGeometry x="773.48" y="440" width="120" height="37.5" as="geometry" />
        </mxCell>
        <mxCell id="Dejl1EHgX0Egc-d-bemE-10" value="Generate Documents &lt;br&gt;over Internal Openshift Service Port 80" style="endArrow=classic;html=1;rounded=0;" edge="1" parent="1" source="SB_mpgMmpFjguFMvalku-5" target="Dejl1EHgX0Egc-d-bemE-4">
          <mxGeometry x="0.1027" y="-9" relative="1" as="geometry">
            <mxPoint x="495" y="391.75" as="sourcePoint" />
            <mxPoint x="601.5" y="391.75" as="targetPoint" />
            <mxPoint as="offset" />
          </mxGeometry>
        </mxCell>
        <mxCell id="Dejl1EHgX0Egc-d-bemE-16" value="" style="endArrow=classic;html=1;rounded=0;entryX=0;entryY=0.5;entryDx=0;entryDy=0;" edge="1" parent="1" target="Sa8QTSbO3vtyegJ3GiD7-23">
          <mxGeometry relative="1" as="geometry">
            <mxPoint x="491.5" y="383.75" as="sourcePoint" />
            <mxPoint x="990.98" y="252.32724295282264" as="targetPoint" />
          </mxGeometry>
        </mxCell>
        <mxCell id="Dejl1EHgX0Egc-d-bemE-17" value="Authentication/Authorization&lt;br&gt;over HTTPS" style="edgeLabel;resizable=0;html=1;align=center;verticalAlign=middle;" connectable="0" vertex="1" parent="Dejl1EHgX0Egc-d-bemE-16">
          <mxGeometry relative="1" as="geometry" />
        </mxCell>
        <mxCell id="Dejl1EHgX0Egc-d-bemE-20" value="Proxy API REST Calls From &lt;br&gt;Browser to backend&lt;br&gt;over Internal Openshift Service on port 80" style="endArrow=classic;html=1;rounded=0;exitX=0.5;exitY=1;exitDx=0;exitDy=0;entryX=0.5;entryY=0;entryDx=0;entryDy=0;entryPerimeter=0;" edge="1" parent="1" source="Sa8QTSbO3vtyegJ3GiD7-15" target="SB_mpgMmpFjguFMvalku-5">
          <mxGeometry relative="1" as="geometry">
            <mxPoint x="506" y="196.75" as="sourcePoint" />
            <mxPoint x="666" y="196.75" as="targetPoint" />
          </mxGeometry>
        </mxCell>
        <mxCell id="Dejl1EHgX0Egc-d-bemE-24" value="JDBC Connection on port 5432" style="endArrow=classic;html=1;rounded=0;" edge="1" parent="1" source="SB_mpgMmpFjguFMvalku-5" target="Sa8QTSbO3vtyegJ3GiD7-3">
          <mxGeometry relative="1" as="geometry">
            <mxPoint x="290" y="392.2753802896925" as="sourcePoint" />
            <mxPoint x="426.5" y="213.5" as="targetPoint" />
          </mxGeometry>
        </mxCell>
        <mxCell id="Dejl1EHgX0Egc-d-bemE-28" value="Pay Transparency Namespace &lt;br&gt;on &lt;br&gt;&amp;nbsp; Silver Cluster&amp;nbsp;" style="rounded=1;whiteSpace=wrap;html=1;" vertex="1" parent="1">
          <mxGeometry x="561" y="-62.25" width="253" height="60" as="geometry" />
        </mxCell>
        <mxCell id="Dejl1EHgX0Egc-d-bemE-29" value="" style="shape=flexArrow;endArrow=classic;startArrow=classic;html=1;rounded=0;exitX=1;exitY=0.5;exitDx=0;exitDy=0;exitPerimeter=0;" edge="1" parent="1" source="fdkoNqw9oe1VA67Y62dj-2" target="Sa8QTSbO3vtyegJ3GiD7-15">
          <mxGeometry width="100" height="100" relative="1" as="geometry">
            <mxPoint x="280.99" y="166.75" as="sourcePoint" />
            <mxPoint x="380.99" y="66.75" as="targetPoint" />
          </mxGeometry>
        </mxCell>
        <mxCell id="Dejl1EHgX0Egc-d-bemE-30" value="HTTPS/TLS Termination" style="text;html=1;strokeColor=none;fillColor=none;align=center;verticalAlign=middle;whiteSpace=wrap;rounded=0;" vertex="1" parent="1">
          <mxGeometry x="286" y="69" width="60" height="30" as="geometry" />
        </mxCell>
        <mxCell id="Dejl1EHgX0Egc-d-bemE-33" value="`" style="rounded=1;whiteSpace=wrap;html=1;fillColor=#E9967A;strokeColor=#6c8ebf;" vertex="1" parent="1">
          <mxGeometry x="1100" y="-88" width="143" height="616" as="geometry" />
        </mxCell>
        <mxCell id="Dejl1EHgX0Egc-d-bemE-34" value="External Integrations" style="rounded=1;whiteSpace=wrap;html=1;" vertex="1" parent="1">
          <mxGeometry x="1111.5" y="-60" width="120" height="60" as="geometry" />
        </mxCell>
        <mxCell id="Dejl1EHgX0Egc-d-bemE-35" value="IDIM Web Service" style="whiteSpace=wrap;html=1;aspect=fixed;" vertex="1" parent="1">
          <mxGeometry x="1131.5" y="235.88" width="80" height="80" as="geometry" />
        </mxCell>
        <mxCell id="Dejl1EHgX0Egc-d-bemE-36" value="SOAP Service Call&amp;nbsp;&lt;br&gt;over HTTPS" style="endArrow=classic;html=1;rounded=0;exitX=1;exitY=0.5;exitDx=0;exitDy=0;exitPerimeter=0;entryX=0;entryY=0.5;entryDx=0;entryDy=0;" edge="1" parent="1" source="SB_mpgMmpFjguFMvalku-5" target="Dejl1EHgX0Egc-d-bemE-35">
          <mxGeometry relative="1" as="geometry">
            <mxPoint x="528" y="165" as="sourcePoint" />
            <mxPoint x="628" y="165" as="targetPoint" />
          </mxGeometry>
        </mxCell>
      </root>
    </mxGraphModel>
  </diagram>
</mxfile>
